<?xml version="1.0" encoding="UTF-8"?>
<svg xmlns="http://www.w3.org/2000/svg" xmlns:xlink="http://www.w3.org/1999/xlink" width="600pt" height="599.999999pt" viewBox="0 0 600 599.999999" version="1.2">
<defs>
<filter id="alpha" filterUnits="objectBoundingBox" x="0%" y="0%" width="100%" height="100%">
  <feColorMatrix type="matrix" in="SourceGraphic" values="0 0 0 0 1 0 0 0 0 1 0 0 0 0 1 0 0 0 1 0"/>
</filter>
<mask id="mask0">
  <g filter="url(#alpha)">
<rect x="0" y="0" width="600" height="599.999999" style="fill:rgb(0%,0%,0%);fill-opacity:0.1176;stroke:none;"/>
  </g>
</mask>
<clipPath id="clip1">
  <rect x="0" y="0" width="600" height="600"/>
</clipPath>
<g id="surface5" clip-path="url(#clip1)">
<path style=" stroke:none;fill-rule:nonzero;fill:rgb(100%,34.118652%,34.118652%);fill-opacity:1;" d="M 593.695312 315.6875 C 596.890625 337.433594 630.570312 332.480469 627.398438 310.753906 C 624.203125 289.011719 590.523438 293.984375 593.695312 315.6875 "/>
<path style=" stroke:none;fill-rule:nonzero;fill:rgb(100%,34.118652%,34.118652%);fill-opacity:1;" d="M 556.738281 246.207031 C 559.929688 267.949219 593.609375 262.976562 590.417969 241.25 C 587.222656 219.527344 553.542969 224.480469 556.738281 246.207031 "/>
<path style=" stroke:none;fill-rule:nonzero;fill:rgb(100%,34.118652%,34.118652%);fill-opacity:1;" d="M 471.882812 178.417969 C 475.078125 200.164062 508.757812 195.230469 505.582031 173.464844 C 502.367188 151.738281 468.6875 156.695312 471.882812 178.417969 "/>
<path style=" stroke:none;fill-rule:nonzero;fill:rgb(100%,34.118652%,34.118652%);fill-opacity:1;" d="M 402.742188 290.273438 C 405.914062 311.976562 439.59375 307.046875 436.402344 285.320312 C 433.226562 263.574219 399.527344 268.550781 402.742188 290.273438 "/>
<path style=" stroke:none;fill-rule:nonzero;fill:rgb(100%,34.118652%,34.118652%);fill-opacity:1;" d="M 458.933594 308.761719 C 462.128906 330.484375 495.828125 325.53125 492.636719 303.808594 C 489.441406 282.082031 455.761719 287.035156 458.933594 308.761719 "/>
<path style=" stroke:none;fill-rule:nonzero;fill:rgb(100%,34.118652%,34.118652%);fill-opacity:1;" d="M 519.003906 353.453125 C 522.199219 375.175781 555.878906 370.222656 552.707031 348.5 C 549.492188 326.753906 515.808594 331.707031 519.003906 353.453125 "/>
<path style=" stroke:none;fill-rule:nonzero;fill:rgb(100%,34.118652%,34.118652%);fill-opacity:1;" d="M 536.5625 436.488281 C 539.757812 458.191406 573.4375 453.257812 570.242188 431.535156 C 567.046875 409.789062 533.367188 414.765625 536.5625 436.488281 "/>
<path style=" stroke:none;fill-rule:nonzero;fill:rgb(100%,34.118652%,34.118652%);fill-opacity:1;" d="M 433.828125 392.738281 C 437.023438 414.441406 470.722656 409.488281 467.507812 387.765625 C 464.3125 366.019531 430.632812 370.996094 433.828125 392.738281 "/>
<path style=" stroke:none;fill-rule:nonzero;fill:rgb(100%,34.118652%,34.118652%);fill-opacity:1;" d="M 347.730469 389.328125 C 350.925781 411.054688 384.625 406.101562 381.433594 384.375 C 378.238281 362.652344 344.535156 367.585938 347.730469 389.328125 "/>
<path style=" stroke:none;fill-rule:nonzero;fill:rgb(100%,34.118652%,34.118652%);fill-opacity:1;" d="M 323.246094 259.136719 C 326.441406 280.882812 360.121094 275.90625 356.949219 254.183594 C 353.753906 232.460938 320.074219 237.414062 323.246094 259.136719 "/>
<path style=" stroke:none;fill-rule:nonzero;fill:rgb(100%,34.118652%,34.118652%);fill-opacity:1;" d="M 342.820312 101.085938 C 346.015625 122.832031 379.71875 117.855469 376.523438 96.121094 C 373.308594 74.40625 339.648438 79.367188 342.820312 101.085938 "/>
<path style=" stroke:none;fill-rule:nonzero;fill:rgb(100%,34.118652%,34.118652%);fill-opacity:1;" d="M 456.488281 73.667969 C 459.683594 95.40625 493.363281 90.449219 490.167969 68.71875 C 486.976562 46.988281 453.292969 51.941406 456.488281 73.667969 "/>
<path style=" stroke:none;fill-rule:nonzero;fill:rgb(100%,34.118652%,34.118652%);fill-opacity:1;" d="M 543.335938 82.296875 C 546.53125 104.023438 580.234375 99.070312 577.039062 77.347656 C 573.824219 55.617188 540.164062 60.578125 543.335938 82.296875 "/>
<path style=" stroke:none;fill-rule:nonzero;fill:rgb(100%,34.118652%,34.118652%);fill-opacity:1;" d="M 554.121094 155.621094 C 557.316406 177.367188 591.015625 172.414062 587.824219 150.667969 C 584.628906 128.945312 550.925781 133.898438 554.121094 155.621094 "/>
<path style=" stroke:none;fill-rule:nonzero;fill:rgb(100%,34.118652%,34.118652%);fill-opacity:1;" d="M 583.386719 -9.203125 C 586.601562 12.527344 620.257812 7.566406 617.085938 -14.164062 C 613.871094 -35.890625 580.191406 -30.941406 583.386719 -9.203125 "/>
<path style=" stroke:none;fill-rule:nonzero;fill:rgb(100%,34.118652%,34.118652%);fill-opacity:1;" d="M 547.023438 616.863281 C 550.21875 638.609375 583.898438 633.652344 580.703125 611.910156 C 577.511719 590.207031 543.832031 595.160156 547.023438 616.863281 "/>
<path style=" stroke:none;fill-rule:nonzero;fill:rgb(100%,34.118652%,34.118652%);fill-opacity:1;" d="M 569.214844 549.417969 C 572.410156 571.121094 606.089844 566.1875 602.894531 544.464844 C 599.699219 522.71875 566.019531 527.671875 569.214844 549.417969 "/>
<path style=" stroke:none;fill-rule:nonzero;fill:rgb(100%,34.118652%,34.118652%);fill-opacity:1;" d="M 494.972656 517.507812 C 498.164062 539.230469 531.847656 534.277344 528.671875 512.554688 C 525.457031 490.828125 491.777344 495.785156 494.972656 517.507812 "/>
<path style=" stroke:none;fill-rule:nonzero;fill:rgb(100%,34.118652%,34.118652%);fill-opacity:1;" d="M 368.527344 530.761719 C 371.71875 552.484375 405.402344 547.53125 402.207031 525.804688 C 399.011719 504.082031 365.332031 509.035156 368.527344 530.761719 "/>
<path style=" stroke:none;fill-rule:nonzero;fill:rgb(100%,34.118652%,34.118652%);fill-opacity:1;" d="M 276.726562 597.777344 C 279.917969 619.5 313.601562 614.546875 310.40625 592.824219 C 307.234375 571.078125 273.53125 576.03125 276.726562 597.777344 "/>
<path style=" stroke:none;fill-rule:nonzero;fill:rgb(100%,34.118652%,34.118652%);fill-opacity:1;" d="M 246.238281 463.101562 C 249.433594 484.847656 283.136719 479.894531 279.917969 458.148438 C 276.746094 436.421875 243.046875 441.378906 246.238281 463.101562 "/>
<path style=" stroke:none;fill-rule:nonzero;fill:rgb(100%,34.118652%,34.118652%);fill-opacity:1;" d="M 155.683594 465.738281 C 158.855469 487.460938 192.558594 482.507812 189.363281 460.785156 C 186.167969 439.039062 152.464844 443.992188 155.683594 465.738281 "/>
<path style=" stroke:none;fill-rule:nonzero;fill:rgb(100%,34.118652%,34.118652%);fill-opacity:1;" d="M 24.921875 340.476562 C 28.117188 362.203125 61.796875 357.25 58.613281 335.523438 C 55.414062 313.800781 21.726562 318.753906 24.921875 340.476562 "/>
<path style=" stroke:none;fill-rule:nonzero;fill:rgb(100%,34.118652%,34.118652%);fill-opacity:1;" d="M -18.972656 405.777344 C -15.777344 427.523438 17.914062 422.570312 14.714844 400.824219 C 11.523438 379.121094 -22.164062 384.074219 -18.972656 405.777344 "/>
<path style=" stroke:none;fill-rule:nonzero;fill:rgb(100%,34.118652%,34.118652%);fill-opacity:1;" d="M -3.566406 146.65625 C -0.375 168.382812 33.316406 163.449219 30.132812 141.726562 C 26.941406 119.980469 -6.765625 124.953125 -3.566406 146.65625 "/>
<path style=" stroke:none;fill-rule:nonzero;fill:rgb(100%,34.118652%,34.118652%);fill-opacity:1;" d="M 69.292969 205.523438 C 72.492188 227.246094 106.160156 222.316406 102.984375 200.570312 C 99.792969 178.847656 66.101562 183.800781 69.292969 205.523438 "/>
<path style=" stroke:none;fill-rule:nonzero;fill:rgb(100%,34.118652%,34.118652%);fill-opacity:1;" d="M 140.761719 291.347656 C 143.933594 313.070312 177.636719 308.117188 174.441406 286.394531 C 171.226562 264.648438 137.566406 269.601562 140.761719 291.347656 "/>
<path style=" stroke:none;fill-rule:nonzero;fill:rgb(100%,34.118652%,34.118652%);fill-opacity:1;" d="M 207.90625 56.714844 C 211.101562 78.4375 244.804688 73.492188 241.585938 51.757812 C 238.394531 30.027344 204.734375 34.976562 207.90625 56.714844 "/>
<path style=" stroke:none;fill-rule:nonzero;fill:rgb(100%,34.118652%,34.118652%);fill-opacity:1;" d="M 120.117188 5.40625 C 123.332031 27.136719 156.992188 22.1875 153.816406 0.457031 C 150.601562 -21.285156 116.941406 -16.324219 120.117188 5.40625 "/>
<path style=" stroke:none;fill-rule:nonzero;fill:rgb(100%,34.118652%,34.118652%);fill-opacity:1;" d="M 423.988281 -1.824219 C 427.183594 19.90625 460.882812 14.957031 457.691406 -6.773438 C 454.472656 -28.503906 420.792969 -23.546875 423.988281 -1.824219 "/>
<path style=" stroke:none;fill-rule:nonzero;fill:rgb(100%,34.118652%,34.118652%);fill-opacity:1;" d="M 234.707031 384.546875 C 237.878906 406.292969 271.582031 401.316406 268.363281 379.59375 C 265.171875 357.847656 231.488281 362.824219 234.707031 384.546875 "/>
<path style=" stroke:none;fill-rule:nonzero;fill:rgb(100%,34.118652%,34.118652%);fill-opacity:1;" d="M 196.652344 234.945312 C 199.847656 256.691406 233.527344 251.71875 230.355469 229.992188 C 227.160156 208.269531 193.480469 213.222656 196.652344 234.945312 "/>
<path style=" stroke:none;fill-rule:nonzero;fill:rgb(100%,34.118652%,34.118652%);fill-opacity:1;" d="M 237.621094 186.117188 C 240.816406 207.863281 274.496094 202.886719 271.300781 181.140625 C 268.128906 159.417969 234.449219 164.390625 237.621094 186.117188 "/>
<path style=" stroke:none;fill-rule:nonzero;fill:rgb(100%,34.118652%,34.118652%);fill-opacity:1;" d="M 156.625 144.511719 C 159.820312 166.257812 193.523438 161.304688 190.304688 139.582031 C 187.113281 117.835938 153.429688 122.789062 156.625 144.511719 "/>
<path style=" stroke:none;fill-rule:nonzero;fill:rgb(100%,34.118652%,34.118652%);fill-opacity:1;" d="M 333.28125 145.285156 C 336.453125 167.03125 370.15625 162.078125 366.960938 140.351562 C 363.765625 118.628906 330.085938 123.582031 333.28125 145.285156 "/>
<path style=" stroke:none;fill-rule:nonzero;fill:rgb(100%,34.118652%,34.118652%);fill-opacity:1;" d="M 269.050781 -0.441406 C 272.246094 21.296875 305.925781 16.335938 302.730469 -5.390625 C 299.558594 -27.128906 265.855469 -22.171875 269.050781 -0.441406 "/>
<path style=" stroke:none;fill-rule:nonzero;fill:rgb(100%,34.118652%,34.118652%);fill-opacity:1;" d="M 38.640625 33.425781 C 41.839844 55.167969 75.53125 50.207031 72.332031 28.476562 C 69.140625 6.753906 35.453125 11.707031 38.640625 33.425781 "/>
<path style=" stroke:none;fill-rule:nonzero;fill:rgb(100%,34.118652%,34.118652%);fill-opacity:1;" d="M 63.574219 457.867188 C 66.761719 479.59375 100.457031 474.636719 97.261719 452.914062 C 94.066406 431.167969 60.390625 436.125 63.574219 457.867188 "/>
<path style=" stroke:none;fill-rule:nonzero;fill:rgb(100%,34.118652%,34.118652%);fill-opacity:1;" d="M 58.796875 570.949219 C 61.992188 592.695312 95.675781 587.738281 92.480469 565.996094 C 89.285156 544.269531 55.601562 549.222656 58.796875 570.949219 "/>
<path style=" stroke:none;fill-rule:nonzero;fill:rgb(100%,34.118652%,34.118652%);fill-opacity:1;" d="M 132.121094 560.160156 C 135.316406 581.886719 168.996094 576.953125 165.800781 555.207031 C 162.628906 533.484375 128.925781 538.4375 132.121094 560.160156 "/>
<path style=" stroke:none;fill-rule:nonzero;fill:rgb(100%,34.118652%,34.118652%);fill-opacity:1;" d="M 19.523438 485.746094 C 22.714844 507.472656 56.402344 502.539062 53.214844 480.792969 C 50.015625 459.070312 16.339844 464.023438 19.523438 485.746094 "/>
<path style=" stroke:none;fill-rule:nonzero;fill:rgb(100%,34.118652%,34.118652%);fill-opacity:1;" d="M 349.144531 -1.511719 C 352.320312 20.21875 386.019531 15.257812 382.824219 -6.472656 C 379.652344 -28.210938 345.929688 -23.253906 349.144531 -1.511719 "/>
<path style=" stroke:none;fill-rule:nonzero;fill:rgb(100%,34.118652%,34.118652%);fill-opacity:1;" d="M 425.511719 554.480469 C 428.683594 576.203125 462.386719 571.25 459.191406 549.523438 C 456.015625 527.800781 422.316406 532.753906 425.511719 554.480469 "/>
<path style=" stroke:none;fill-rule:nonzero;fill:rgb(100%,34.118652%,34.118652%);fill-opacity:1;" d="M 143.355469 381.929688 C 146.550781 403.65625 180.230469 398.679688 177.058594 376.976562 C 173.863281 355.253906 140.183594 360.1875 143.355469 381.929688 "/>
<path style=" stroke:none;fill-rule:nonzero;fill:rgb(100%,34.118652%,34.118652%);fill-opacity:1;" d="M 264.871094 262.375 C 268.0625 284.097656 301.765625 279.144531 298.570312 257.421875 C 295.378906 235.699219 261.695312 240.652344 264.871094 262.375 "/>
<path style=" stroke:none;fill-rule:nonzero;fill:rgb(100%,34.118652%,34.118652%);fill-opacity:1;" d="M 321.105469 462.824219 C 324.296875 484.523438 357.957031 479.570312 354.761719 457.847656 C 351.589844 436.125 317.910156 441.078125 321.105469 462.824219 "/>
<path style=" stroke:none;fill-rule:nonzero;fill:rgb(100%,34.118652%,34.118652%);fill-opacity:1;" d="M -1.972656 237.414062 C 0.421875 253.710938 25.6875 249.980469 23.300781 233.703125 C 20.898438 217.40625 -4.363281 221.113281 -1.972656 237.414062 "/>
<path style=" stroke:none;fill-rule:nonzero;fill:rgb(100%,34.118652%,34.118652%);fill-opacity:1;" d="M 73.042969 92.601562 C 75.449219 108.894531 100.714844 105.183594 98.3125 88.890625 C 95.910156 72.589844 70.648438 76.300781 73.042969 92.601562 "/>
<path style=" stroke:none;fill-rule:nonzero;fill:rgb(100%,34.118652%,34.118652%);fill-opacity:1;" d="M 411.875 213.996094 C 414.253906 230.316406 439.53125 226.582031 437.128906 210.285156 C 434.730469 193.988281 409.472656 197.71875 411.875 213.996094 "/>
<path style=" stroke:none;fill-rule:nonzero;fill:rgb(100%,34.118652%,34.118652%);fill-opacity:1;" d="M 402.3125 440.15625 C 404.714844 456.472656 429.96875 452.742188 427.566406 436.445312 C 425.1875 420.167969 399.914062 423.855469 402.3125 440.15625 "/>
<path style=" stroke:none;fill-rule:nonzero;fill:rgb(100%,34.118652%,34.118652%);fill-opacity:1;" d="M 463.605469 602.386719 C 465.988281 618.683594 491.261719 614.976562 488.863281 598.675781 C 486.460938 582.378906 461.183594 586.089844 463.605469 602.386719 "/>
<path style=" stroke:none;fill-rule:nonzero;fill:rgb(100%,34.118652%,34.118652%);fill-opacity:1;" d="M 185.140625 600.542969 C 187.539062 616.839844 212.816406 613.132812 210.414062 596.8125 C 208.015625 580.535156 182.757812 584.246094 185.140625 600.542969 "/>
<path style=" stroke:none;fill-rule:nonzero;fill:rgb(100%,34.118652%,34.118652%);fill-opacity:1;" d="M 301.59375 337.238281 C 303.972656 353.558594 329.273438 349.828125 326.847656 333.53125 C 324.46875 317.230469 299.191406 320.964844 301.59375 337.238281 "/>
<path style=" stroke:none;fill-rule:nonzero;fill:rgb(100%,34.118652%,34.118652%);fill-opacity:1;" d="M 224.4375 321.84375 C 226.816406 338.140625 252.09375 334.410156 249.691406 318.132812 C 247.3125 301.835938 222.035156 305.542969 224.4375 321.84375 "/>
<path style=" stroke:none;fill-rule:nonzero;fill:rgb(100%,34.118652%,34.118652%);fill-opacity:1;" d="M 271.410156 95.542969 C 273.808594 111.832031 299.066406 108.121094 296.683594 91.824219 C 294.285156 75.523438 269.007812 79.242188 271.410156 95.542969 "/>
</g>
</defs>
<g id="surface1">
<rect x="0" y="0" width="600" height="599.999999" style="fill:rgb(100%,100%,100%);fill-opacity:1;stroke:none;"/>
<rect x="0" y="0" width="600" height="599.999999" style="fill:rgb(100%,100%,100%);fill-opacity:1;stroke:none;"/>
<rect x="0" y="0" width="600" height="599.999999" style="fill:rgb(99.21875%,99.21875%,99.21875%);fill-opacity:1;stroke:none;"/>
<use xlink:href="#surface5" transform="matrix(1,0,0,1,0,-0.000000000000034788)" mask="url(#mask0)"/>
</g>
</svg>
